<?xml version="1.0" standalone="no"?>
<!DOCTYPE svg PUBLIC "-//W3C//DTD SVG 20010904//EN"
 "http://www.w3.org/TR/2001/REC-SVG-20010904/DTD/svg10.dtd">
<svg version="1.0" xmlns="http://www.w3.org/2000/svg"
 width="316.000000pt" height="316.000000pt" viewBox="0 0 316.000000 316.000000"
 preserveAspectRatio="xMidYMid meet">
<metadata>
Created by potrace 1.14, written by Peter Selinger 2001-2017
</metadata>
<g transform="translate(0.000000,316.000000) scale(0.100000,-0.100000)"
fill="#000000" stroke="none">
<path d="M0 1580 l0 -1580 1580 0 1580 0 0 1580 0 1580 -1580 0 -1580 0 0
-1580z m1660 940 c0 -5 9 -10 20 -10 11 0 20 -4 20 -10 0 -5 14 -10 30 -10 17
0 30 -4 30 -10 0 -5 13 -10 28 -10 16 0 34 -8 42 -20 8 -11 20 -20 28 -20 17
0 42 -24 42 -40 0 -7 14 -25 30 -40 24 -22 30 -36 30 -70 0 -35 -6 -47 -40
-80 -38 -36 -52 -70 -30 -70 6 0 10 -9 10 -20 0 -11 5 -20 10 -20 6 0 10 -9
10 -20 0 -11 5 -20 10 -20 6 0 10 -9 10 -20 0 -11 5 -20 10 -20 6 0 10 -9 10
-20 0 -11 5 -20 10 -20 6 0 10 -9 10 -20 0 -11 5 -20 10 -20 6 0 10 -13 10
-30 0 -16 5 -30 10 -30 6 0 10 -13 10 -28 0 -16 8 -34 20 -42 11 -8 20 -20 20
-28 0 -7 23 -35 50 -62 28 -27 50 -54 50 -60 0 -7 14 -25 30 -40 17 -15 30
-35 30 -44 0 -9 5 -16 10 -16 6 0 10 -8 10 -18 0 -10 9 -24 20 -32 11 -8 20
-22 20 -32 0 -10 5 -18 10 -18 6 0 10 -8 10 -18 0 -10 9 -24 20 -32 12 -8 20
-26 20 -42 0 -15 5 -28 10 -28 6 0 10 -13 10 -30 0 -16 5 -30 10 -30 6 0 10
-9 10 -20 0 -11 5 -20 10 -20 6 0 10 -9 10 -20 0 -11 5 -20 10 -20 6 0 10 -9
10 -20 0 -11 5 -20 10 -20 6 0 10 -22 10 -50 0 -27 5 -50 10 -50 6 0 10 -13
10 -30 0 -16 -4 -30 -10 -30 -16 0 -12 -109 4 -126 16 -16 86 -19 86 -4 0 6 7
10 16 10 9 0 29 14 44 30 15 16 33 30 39 30 14 0 141 126 141 140 0 11 45 60
55 60 3 0 5 -22 5 -50 0 -27 -4 -50 -10 -50 -5 0 -10 -8 -10 -18 0 -10 -9 -24
-20 -32 -11 -8 -20 -21 -20 -28 0 -7 -18 -31 -40 -52 -22 -21 -40 -43 -40 -49
0 -23 -89 -101 -115 -101 -14 0 -25 -4 -25 -10 0 -6 -37 -10 -90 -10 -74 0
-90 -3 -90 -15 0 -19 -64 -85 -82 -85 -8 0 -20 -9 -28 -20 -8 -11 -22 -20 -32
-20 -10 0 -18 -4 -18 -10 0 -16 -109 -12 -126 4 -20 21 -17 59 6 76 11 8 20
22 20 32 0 15 -9 18 -60 18 -33 0 -60 -4 -60 -10 0 -5 -13 -10 -30 -10 -16 0
-30 -4 -30 -10 0 -5 -13 -10 -30 -10 -16 0 -30 -4 -30 -10 0 -5 -7 -10 -16
-10 -27 0 -44 -27 -44 -70 0 -48 -17 -70 -54 -70 -14 0 -26 -4 -26 -10 0 -15
-49 -12 -66 4 -16 17 -19 46 -4 46 6 0 10 9 10 20 0 11 5 20 10 20 6 0 10 14
10 30 0 17 5 30 10 30 6 0 10 9 10 20 0 11 5 20 10 20 6 0 10 18 10 40 0 22 5
40 10 40 6 0 10 30 10 70 0 40 4 70 10 70 6 0 10 14 10 30 0 17 5 30 10 30 6
0 10 23 10 50 0 28 -4 50 -10 50 -5 0 -10 7 -10 16 0 15 -23 44 -34 44 -3 0
-6 -9 -6 -20 0 -11 -4 -20 -10 -20 -5 0 -10 -13 -10 -30 0 -16 -4 -30 -10 -30
-6 0 -10 -30 -10 -70 0 -40 -4 -70 -10 -70 -5 0 -10 -13 -10 -30 0 -16 -4 -30
-10 -30 -6 0 -10 -27 -10 -60 0 -33 -4 -60 -10 -60 -5 0 -10 -7 -10 -15 0 -9
-16 -31 -35 -50 -29 -30 -41 -35 -80 -35 -43 0 -45 1 -45 30 0 17 5 30 10 30
6 0 10 7 10 16 0 8 18 33 40 54 22 21 40 46 40 54 0 9 5 16 10 16 6 0 10 63
10 170 0 107 4 170 10 170 6 0 10 23 10 50 0 28 -4 50 -10 50 -6 0 -10 27 -10
60 0 33 -4 60 -10 60 -5 0 -10 14 -10 30 0 17 -4 30 -10 30 -5 0 -10 14 -10
30 0 17 -4 30 -10 30 -5 0 -10 14 -10 30 0 17 -4 30 -10 30 -5 0 -10 18 -10
40 0 22 -4 40 -10 40 -5 0 -10 18 -10 40 0 22 5 40 10 40 6 0 10 23 10 50 0
28 5 50 10 50 6 0 10 23 10 50 0 28 5 50 10 50 6 0 10 33 10 80 l0 80 -30 0
c-16 0 -30 5 -30 10 0 6 -22 10 -50 10 -27 0 -50 5 -50 10 0 6 -9 10 -20 10
-13 0 -20 7 -20 20 0 19 7 20 96 20 69 0 99 4 110 14 21 21 17 46 -6 46 -11 0
-20 -4 -20 -10 0 -5 -9 -10 -20 -10 -11 0 -20 -4 -20 -10 0 -18 -35 -11 -50
10 -11 15 -26 20 -58 20 -32 0 -49 6 -67 25 -14 13 -25 31 -25 40 0 8 -4 15
-10 15 -5 0 -10 18 -10 40 0 22 5 40 10 40 6 0 10 9 10 20 0 13 7 20 20 20 11
0 20 5 20 10 0 6 16 10 36 10 28 0 43 8 74 40 21 22 46 40 54 40 9 0 16 5 16
10 0 6 30 10 70 10 40 0 70 -4 70 -10z m-500 -388 c0 -26 6 -42 20 -52 11 -8
20 -22 20 -32 0 -13 8 -18 30 -18 17 0 30 -4 30 -10 0 -5 8 -10 18 -10 10 0
24 -9 32 -20 8 -12 26 -20 42 -20 21 0 28 -5 28 -20 0 -11 5 -20 10 -20 6 0
10 -9 10 -20 0 -11 5 -20 10 -20 6 0 10 -13 10 -30 0 -16 -4 -30 -10 -30 -5 0
-10 -7 -10 -16 0 -18 -23 -44 -40 -44 -6 0 -22 -11 -35 -25 -22 -21 -25 -33
-25 -90 0 -37 4 -65 10 -65 6 0 10 -50 10 -130 0 -80 -4 -130 -10 -130 -6 0
-10 -27 -10 -60 0 -33 -4 -60 -10 -60 -6 0 -10 -27 -10 -60 0 -33 -4 -60 -10
-60 -5 0 -10 -18 -10 -40 0 -22 -4 -40 -10 -40 -6 0 -10 -36 -10 -88 0 -76 3
-89 20 -102 24 -17 27 -74 6 -96 -9 -9 -35 -14 -70 -14 -31 0 -56 -4 -56 -10
0 -5 -9 -10 -20 -10 -11 0 -20 -4 -20 -10 0 -6 -27 -10 -60 -10 -33 0 -60 -4
-60 -10 0 -6 -73 -10 -198 -10 -186 0 -198 1 -212 20 -8 11 -20 20 -28 20 -17
0 -62 45 -62 62 0 8 -9 20 -20 28 -11 8 -20 22 -20 32 0 10 -4 18 -10 18 -5 0
-10 9 -10 20 0 11 -4 20 -10 20 -5 0 -10 14 -10 30 0 17 -4 30 -10 30 -6 0
-10 47 -10 120 0 73 4 120 10 120 6 0 10 43 10 110 0 67 4 110 10 110 6 0 10
30 10 70 0 40 4 70 10 70 6 0 10 13 10 28 0 16 8 34 20 42 11 8 20 21 20 30 0
9 9 22 20 30 11 8 20 21 20 28 0 8 14 27 30 42 17 15 30 33 30 39 0 17 47 61
65 61 11 0 15 -11 15 -40 0 -22 -4 -40 -10 -40 -5 0 -10 -7 -10 -16 0 -8 -18
-33 -40 -54 -22 -21 -40 -46 -40 -54 0 -9 -4 -16 -10 -16 -5 0 -10 -9 -10 -20
0 -11 -4 -20 -10 -20 -5 0 -10 -9 -10 -20 0 -11 -4 -20 -10 -20 -5 0 -10 -22
-10 -50 0 -27 -4 -50 -10 -50 -6 0 -10 -70 -10 -190 0 -120 4 -190 10 -190 6
0 10 9 10 20 0 11 5 20 10 20 6 0 10 18 10 40 0 22 5 40 10 40 6 0 10 14 10
30 0 17 5 30 10 30 6 0 10 14 10 30 0 17 5 30 10 30 6 0 10 14 10 30 0 17 5
30 10 30 6 0 10 9 10 20 0 11 5 20 10 20 6 0 10 13 10 28 0 16 8 34 20 42 11
8 20 20 20 28 0 17 45 62 62 62 8 0 20 9 28 20 8 11 22 20 32 20 10 0 18 5 18
10 0 6 14 10 30 10 17 0 30 5 30 10 0 6 14 10 30 10 17 0 30 5 30 10 0 6 7 10
16 10 35 0 44 26 44 124 0 57 -4 96 -10 96 -5 0 -10 18 -10 40 0 22 -4 40 -10
40 -5 0 -10 18 -10 40 0 36 2 40 26 40 16 0 37 -12 54 -30 34 -36 80 -42 80
-10 0 11 5 20 10 20 6 0 10 33 10 80 0 73 2 80 20 80 16 0 20 -7 20 -38z"/>
<path d="M1913 895 c-7 -8 -13 -30 -13 -50 0 -19 -4 -35 -10 -35 -5 0 -10 -9
-10 -20 0 -11 -4 -20 -10 -20 -5 0 -10 -13 -10 -30 0 -16 -4 -30 -10 -30 -5 0
-10 -4 -10 -10 0 -20 33 -9 60 20 15 17 33 30 40 30 22 0 40 29 40 64 0 20 -4
36 -10 36 -5 0 -10 14 -10 30 0 33 -25 41 -47 15z"/>
<path d="M1213 1935 c-17 -18 -16 -33 1 -51 17 -16 46 -19 46 -4 0 6 9 10 20
10 23 0 27 25 6 46 -18 18 -57 18 -73 -1z"/>
</g>
</svg>
